<svg id="eaoXND2sc561" xmlns="http://www.w3.org/2000/svg" xmlns:xlink="http://www.w3.org/1999/xlink" viewBox="0 0 300 300" shape-rendering="geometricPrecision" text-rendering="geometricPrecision"><g transform="matrix(3.119572 0 0 3.119572-316.523263-303.928194)"><rect width="50.769753" height="23.827161" rx="0" ry="0" transform="matrix(.700499 0.713654-.713654 0.700499 135.991686 121.895675)" fill="#d2dbed" stroke-width="0"/><rect width="50.769753" height="23.827161" rx="0" ry="0" transform="matrix(-.873572 0.912186-.722228-.691655 199.149068 130.329204)" fill="#d2dbed" stroke-width="0"/><line x1="-9.063444" y1="-10.876133" x2="40.936556" y2="39.123867" transform="matrix(.367382 0 0 0.367382 139.579393 123.179235)" fill="none" stroke="#192d55" stroke-width="24" stroke-linecap="round"/><line x1="-9.063444" y1="-10.876133" x2="40.936556" y2="39.123867" transform="matrix(0-.367382 0.367382 0 160.180365 171.488845)" fill="none" stroke="#3f5787" stroke-width="24" stroke-linecap="round"/><line x1="-9.063444" y1="-10.876133" x2="58.985616" y2="57.172928" transform="matrix(-.367382 0 0-.367382 151.301034 170.822896)" fill="none" stroke="#3f5787" stroke-width="24" stroke-linecap="round"/><line x1="-9.063444" y1="-10.876133" x2="40.936556" y2="39.123867" transform="matrix(0 0.367382-.367382 0 131.819635 122.509237)" fill="none" stroke="#192d55" stroke-width="24" stroke-linecap="round"/><rect width="15.834523" height="51.027229" rx="0" ry="0" transform="translate(182.926807 107.311179)" fill="#fff" stroke-width="0"/><line x1="-9.063444" y1="-10.876133" x2="45.375804" y2="43.563115" transform="matrix(.259778 0.259778-.259778 0.259778 180.579393 121.179235)" fill="none" stroke="#192d55" stroke-width="24" stroke-linecap="round"/></g></svg>
